<svg xmlns="http://www.w3.org/2000/svg" width="31.425" height="39.774" viewBox="0 0 31.425 39.774"><defs><style>.a{fill:#161616;}.b{fill:#6fc83d;stroke:#fff;}.c{stroke:none;}.d{fill:none;}</style></defs><g transform="translate(-33.561 -876)"><path class="a" d="M530.292,669.772l-7.471-3.895a2.106,2.106,0,0,0-2.841.894l-1.644,3.328a25.767,25.767,0,0,1-10-11.357l3.447-1.182a2.106,2.106,0,0,0,1.25-2.7l-2.907-7.908a2.106,2.106,0,0,0-2.7-1.25l-5.173,1.774c-.055.016-.109.036-.163.055l-.118.041c-.014.005-.026.014-.04.02s-.051.025-.076.037a2.092,2.092,0,0,0-.458.276l-.076.058c-.027.024-.056.045-.082.07a3.772,3.772,0,0,0-1.231,3.147,31.425,31.425,0,0,0,24.742,28.139,3.757,3.757,0,0,0,3.325-.861,2.089,2.089,0,0,0,.557-.671l2.553-5.169A2.106,2.106,0,0,0,530.292,669.772Z" transform="translate(-466.439 236.377)"/><g class="b" transform="translate(47 876)"><ellipse class="c" cx="4.5" cy="4" rx="4.5" ry="4"/><ellipse class="d" cx="4.5" cy="4" rx="4" ry="3.5"/></g></g></svg>